<svg width="13" height="13" viewBox="0 0 13 13" fill="none" xmlns="http://www.w3.org/2000/svg">
<path d="M11.1928 10.1676C11.1928 10.1676 10.5652 10.784 10.4114 10.9647C10.1609 11.2321 9.86566 11.3584 9.47868 11.3584C9.44147 11.3584 9.40178 11.3584 9.36457 11.3559C8.62781 11.3089 7.94314 11.0217 7.42964 10.7766C6.02558 10.0983 4.79269 9.13528 3.76817 7.9148C2.92227 6.89733 2.35667 5.9566 1.98209 4.94656C1.75139 4.33014 1.66705 3.84987 1.70426 3.39683C1.72906 3.10719 1.84069 2.86705 2.04659 2.66158L2.8925 1.8174C3.01405 1.70352 3.14305 1.64163 3.26956 1.64163C3.42584 1.64163 3.55236 1.7357 3.63174 1.81492C3.63422 1.8174 3.6367 1.81988 3.63918 1.82235C3.7905 1.96346 3.93438 2.10952 4.0857 2.26548C4.1626 2.3447 4.24198 2.42392 4.32136 2.50562L4.99859 3.18146C5.26154 3.44387 5.26154 3.68648 4.99859 3.94889C4.92665 4.02068 4.85719 4.09248 4.78525 4.16179C4.57687 4.3747 4.74056 4.21134 4.52475 4.40443C4.51978 4.40939 4.51482 4.41186 4.51234 4.41681C4.299 4.62971 4.3387 4.83766 4.38335 4.97877C4.38583 4.9862 4.38831 4.99363 4.39079 5.00105C4.56692 5.42686 4.81498 5.8279 5.19205 6.3057L5.19453 6.30817C5.87919 7.14988 6.60107 7.80591 7.39736 8.30846C7.49907 8.37282 7.60326 8.42481 7.70248 8.47432C7.79179 8.51888 7.87613 8.56097 7.94807 8.60553C7.95799 8.61048 7.96792 8.61791 7.97784 8.62286C8.06218 8.66494 8.14156 8.68475 8.22342 8.68475C8.42932 8.68475 8.55832 8.55602 8.60049 8.51393L9.08673 8.02868C9.17107 7.94451 9.30503 7.84301 9.46131 7.84301C9.61511 7.84301 9.74163 7.93956 9.81853 8.02373C9.82101 8.02621 9.82101 8.02621 9.82349 8.02868L11.1903 9.39274C11.4458 9.64525 11.1928 10.1676 11.1928 10.1676Z" stroke="#CBCBCB" stroke-width="1.5" stroke-linecap="round" stroke-linejoin="round"/>
</svg>
